 http://bayimg.com/jajnOaAeC

 
http://www.imdb.com/title/tt0903624/

The Hobbit: An Unexpected Journey

Plot:A younger and more reluctant Hobbit, Bilbo Baggins, sets out on a "unexpected journey" to the Lonely Mountain with a spirited group of Dwarves to reclaim a their stolen mountain home from a dragon named Smaug.
 

Director: 
Peter Jackson

 Writers: 
Fran Walsh (screenplay), Philippa Boyens (screenplay)

Stars:
 Martin Freeman, Ian McKellen and Richard Armitage

Genres:
 Adventure | Fantasy 


Country:
USA |New Zealand 

Language:
English 



General 
http://www.imdb.com/title/tt0903624/
Unique ID                                : 209908201937563935261089155893117233688 (0x9DEAD96319BAC440B53D4FA43936AA18)
Complete name                            : The Hobbit 2012 An Unexpected Journey Dvdscr Ac3 5.1-ADTRG.mkv
Source                                   : HIVE [thanks]
Encoder                                  : Sp1
Format                                   : Matroska
Format version                           : Version 4 / Version 2
File size                                : 1.41 GiB
Duration                                 : 2h 23mn
Overall bit rate                         : 1 400 Kbps
Encoded date                             : UTC 2013-01-31 13:26:00
Writing application                      : mkvmerge v6.0.0 ('Coming Up For Air') built on Jan 20 2013 09:52:00
Writing library                          : libebml v1.3.0 + libmatroska v1.4.0

Video
ID                                       : 1
Format                                   : AVC
Format/Info                              : Advanced Video Codec
Format profile                           : Main@L3.0
Format settings, CABAC                   : Yes
Format settings, ReFrames                : 4 frames
Codec ID                                 : V_MPEG4/ISO/AVC
Duration                                 : 2h 23mn
Bit rate                                 : 950 Kbps
Width                                    : 720 pixels
Height                                   : 304 pixels
Display aspect ratio                     : 2.35:1
Frame rate                               : 29.970 fps
Color space                              : YUV
Chroma subsampling                       : 4:2:0
Bit depth                                : 8 bits
Scan type                                : Progressive
Bits/(Pixel*Frame)                       : 0.145
Stream size                              : 951 MiB (66%)
Writing library                          : x264 core 120
Language                                 : English
Default                                  : Yes
Forced                                   : No
Color primaries                          : BT.601-6 525, BT.1358 525, BT.1700 NTSC, SMPTE 170M
Transfer characteristics                 : BT.709-5, BT.1361
Matrix coefficients                      : BT.601-6 525, BT.1358 525, BT.1700 NTSC, SMPTE 170M

Audio
ID                                       : 2
Format                                   : AC-3
Format/Info                              : Audio Coding 3
Mode extension                           : CM (complete main)
Codec ID                                 : A_AC3
Duration                                 : 2h 23mn
Bit rate mode                            : Constant
Bit rate                                 : 448 Kbps
Channel(s)                               : 6 channels
Channel positions                        : Front: L C R, Side: L R, LFE
Sampling rate                            : 48.0 KHz
Bit depth                                : 16 bits
Compression mode                         : Lossy
Stream size                              : 461 MiB (32%)
Default                                  : Yes
Forced                                   : No



Notes : 

Decided to give this one a go 
Took the original Hive release [Thanks]  
First off we changed the framerate to a standard form to try and eliminate the stutter 
video was nice as is, (apart from the stutter) but did our own thing and tweaked hue, gamma, saturation, brightness, contrast and sharpend up a bit  
The audio was stripped and completly reworked creating Front: L C R, Side: L R, LFE 6 channels in sound forge then mixed down in vegas
all in all the video has a lot less stutter (although minimally still present) and the audio now has a nice beef to it 
We left the Hive Edition water mark at the begining in, out of respect for bringing the source  
sample included.

 
http://bayimg.com/jAjNFaAeC 
http://bayimg.com/jAJNHAaeC 
http://bayimg.com/JaJNIAAEc 
http://bayimg.com/jAjnJaAeC 
http://bayimg.com/jaJNKAAeC